<?xml version="1.0" encoding="UTF-8" standalone="no"?>
<svg
   xmlns:dc="http://purl.org/dc/elements/1.1/"
   xmlns:cc="http://creativecommons.org/ns#"
   xmlns:rdf="http://www.w3.org/1999/02/22-rdf-syntax-ns#"
   xmlns:svg="http://www.w3.org/2000/svg"
   xmlns="http://www.w3.org/2000/svg"
   viewBox="0 0 1066.6667 1066.6667"
   height="1066.6667"
   width="1066.6667"
   xml:space="preserve"
   id="svg2"
   version="1.1"><metadata
     id="metadata8"><rdf:RDF><cc:Work
         rdf:about=""><dc:format>image/svg+xml</dc:format><dc:type
           rdf:resource="http://purl.org/dc/dcmitype/StillImage" /></cc:Work></rdf:RDF></metadata><defs
     id="defs6" /><g
     transform="matrix(1.3333333,0,0,-1.3333333,0,1066.6667)"
     id="g10"><g
       transform="scale(0.1)"
       id="g12"><path
         id="path14"
         style="fill:#fff;fill-opacity:1;fill-rule:nonzero;stroke:none"
         d="M 8000,0 H 0 V 8000 H 8000 V 0" /><path
         id="path16"
         style="fill:#fff9fb;fill-opacity:1;fill-rule:nonzero;stroke:none"
         d="M 115.547,2889.32 370.102,2125.63 -393.57,2380.2 Z" /><path
         id="path18"
         style="fill:#fff9fb;fill-opacity:1;fill-rule:nonzero;stroke:none"
         d="m 171.68,3032.85 -394.707,-394.71 592.058,-197.35 z m -579.825,-438.41 623.528,623.53 311.762,-935.29 -935.29,311.76" /><path
         id="path20"
         style="fill:#fff9fb;fill-opacity:1;fill-rule:nonzero;stroke:none"
         d="m 211.023,4251.78 -0.003,-251.41 h 251.421 l -0.003,-251.42 h 201.414 l 0.003,-99.99 -301.421,-0.01 0.004,251.41 H 111.016 l 0.007,251.42 -251.418,-0.01 0.004,301.43 100.0004,-0.01 V 4251.78 H 211.023" /><path
         id="path22"
         style="fill:#fff9fb;fill-opacity:1;fill-rule:nonzero;stroke:none"
         d="m -100.73,4673.54 -0.012,-251.41 H 150.68 l -0.004,-251.42 H 352.09 l 0.004,-100 H 50.6719 v 251.42 l -251.4179,-0.01 0.008,251.42 h -251.418 l 0.004,301.42 h 100 v -201.42 h 251.422" /><path
         id="path24"
         style="fill:#fff9fb;fill-opacity:1;fill-rule:nonzero;stroke:none"
         d="m -472.855,7153.06 c 0,276.14 223.855,500 499.9995,500 276.1405,0 500.0005,-223.86 500.0005,-500 0,-276.15 -223.86,-500 -500.0005,-500 -276.1445,0 -499.9995,223.85 -499.9995,500" /><path
         id="path26"
         style="fill:#fff9fb;fill-opacity:1;fill-rule:nonzero;stroke:none"
         d="m 384.805,6553.86 c 248.129,0 450,201.87 450,450 0,248.13 -201.871,450 -450,450 -248.129,0 -450.0003,-201.87 -450.0003,-450 0,-248.13 201.8713,-450 450.0003,-450 z m 0,1000 c 303.269,0 550,-246.73 550,-550 0,-303.27 -246.731,-550 -550,-550 -303.2698,0 -550,246.73 -550,550 0,303.27 246.7302,550 550,550" /><path
         id="path28"
         style="fill:#fff9fb;fill-opacity:1;fill-rule:nonzero;stroke:none"
         d="m -391.586,1526.84 h 1000 v -1000 h -1000 v 1000" /><path
         id="path30"
         style="fill:#fff9fb;fill-opacity:1;fill-rule:nonzero;stroke:none"
         d="m 291.523,1311.5 h -900 v -900 h 900 z m -1000,100 h 1100 v -1100 h -1100 v 1100" /><path
         id="path32"
         style="fill:#fff9fb;fill-opacity:1;fill-rule:nonzero;stroke:none"
         d="m 8115.55,2889.32 254.56,-763.69 -763.68,254.57 z" /><path
         id="path34"
         style="fill:#fff9fb;fill-opacity:1;fill-rule:nonzero;stroke:none"
         d="m 8171.68,3032.85 -394.71,-394.71 592.06,-197.35 z m -579.82,-438.41 623.52,623.53 311.77,-935.29 -935.29,311.76" /><path
         id="path36"
         style="fill:#fff9fb;fill-opacity:1;fill-rule:nonzero;stroke:none"
         d="m 8211.03,4251.78 v -251.41 h 251.41 v -251.42 h 201.41 l 0.01,-99.99 -301.43,-0.01 0.01,251.41 h -251.42 l 0.01,251.42 -251.43,-0.01 0.01,301.43 100,-0.01 v -201.41 h 251.42" /><path
         id="path38"
         style="fill:#fff9fb;fill-opacity:1;fill-rule:nonzero;stroke:none"
         d="m 7899.27,4673.54 -0.01,-251.41 h 251.41 v -251.42 h 201.42 l 0.01,-100 h -301.43 v 251.42 l -251.41,-0.01 v 251.42 h -251.42 l 0.01,301.42 h 99.99 v -201.42 h 251.43" /><path
         id="path40"
         style="fill:#fff9fb;fill-opacity:1;fill-rule:nonzero;stroke:none"
         d="m 7527.15,7153.06 c 0,276.14 223.86,500 500,500 276.14,0 500,-223.86 500,-500 0,-276.15 -223.86,-500 -500,-500 -276.14,0 -500,223.85 -500,500" /><path
         id="path42"
         style="fill:#fff9fb;fill-opacity:1;fill-rule:nonzero;stroke:none"
         d="m 8384.8,6553.86 c 248.14,0 450,201.87 450,450 0,248.13 -201.86,450 -450,450 -248.12,0 -450,-201.87 -450,-450 0,-248.13 201.88,-450 450,-450 z m 0,1000 c 303.28,0 550,-246.73 550,-550 0,-303.27 -246.72,-550 -550,-550 -303.27,0 -550,246.73 -550,550 0,303.27 246.73,550 550,550" /><path
         id="path44"
         style="fill:#fff9fb;fill-opacity:1;fill-rule:nonzero;stroke:none"
         d="m 7608.42,1526.84 h 1000 v -1000 h -1000 v 1000" /><path
         id="path46"
         style="fill:#fff9fb;fill-opacity:1;fill-rule:nonzero;stroke:none"
         d="m 8291.52,1311.5 h -900 v -900 h 900 z m -1000,100 h 1100 v -1100 h -1100 v 1100" /><path
         id="path48"
         style="fill:#fff9fb;fill-opacity:1;fill-rule:nonzero;stroke:none"
         d="m 1422.05,-15.0703 576.38,576.3793 70.72,-70.707 -576.39,-576.3833 -70.71,70.711" /><path
         id="path50"
         style="fill:#fff9fb;fill-opacity:1;fill-rule:nonzero;stroke:none"
         d="m 1407.31,291.059 570.44,570.441 70.72,-70.711 -570.44,-570.437 -70.72,70.707" /><path
         id="path52"
         style="fill:#fff9fb;fill-opacity:1;fill-rule:nonzero;stroke:none"
         d="m 1025.36,229.98 560.22,560.219 70.71,-70.711 -560.22,-560.218 -70.71,70.71" /><path
         id="path54"
         style="fill:#fff9fb;fill-opacity:1;fill-rule:nonzero;stroke:none"
         d="m 1121.79,-408.559 576.38,576.379 70.71,-70.7106 -576.38,-576.3864 -70.71,70.718" /><path
         id="path56"
         style="fill:#fff9fb;fill-opacity:1;fill-rule:nonzero;stroke:none"
         d="m 1107.05,-102.43 570.44,570.442 70.71,-70.711 -570.44,-570.43 -70.71,70.699" /><path
         id="path58"
         style="fill:#fff9fb;fill-opacity:1;fill-rule:nonzero;stroke:none"
         d="M 725.098,-163.52 1285.32,396.711 1356.03,326 795.805,-234.219 725.098,-163.52" /><path
         id="path60"
         style="fill:#fff9fb;fill-opacity:1;fill-rule:nonzero;stroke:none"
         d="m 2819.38,-203.77 c -195.25,195.25828 -195.25,511.852 0,707.102 195.27,195.258 511.85,195.258 707.11,0 195.27,-195.25 195.27,-511.84372 0,-707.102 -195.26,-195.261 -511.84,-195.261 -707.11,0" /><path
         id="path62"
         style="fill:#fff9fb;fill-opacity:1;fill-rule:nonzero;stroke:none"
         d="m 3686.4,-94.7188 c 175.45,175.4571 175.45,460.9488 0,636.3988 -175.46,175.461 -460.95,175.461 -636.4,0 -175.45,-175.45 -175.45,-460.9417 0,-636.3988 175.45,-175.4492 460.94,-175.4492 636.4,0 z M 2979.29,612.391 c 214.45,214.449 563.37,214.449 777.81,0 214.45,-214.442 214.45,-563.3715 0,-777.821 -214.44,-214.441 -563.36,-214.441 -777.81,0 -214.45,214.4495 -214.45,563.379 0,777.821" /><path
         id="path64"
         style="fill:#fff9fb;fill-opacity:1;fill-rule:nonzero;stroke:none"
         d="m 6620,457.34 -0.01,-251.41 h 251.42 V -45.5 h 201.41 v -99.988 l -301.41,-0.012 v 251.43 l -251.43,-0.008 0.01,251.406 h -251.42 v 301.434 l 100,-0.012 V 457.328 L 6620,457.34" /><path
         id="path66"
         style="fill:#fff9fb;fill-opacity:1;fill-rule:nonzero;stroke:none"
         d="M 6721.41,-294.848 V -43.4414 H 6469.99 V 207.98 h -201.42 v 100 H 6570 l -0.01,-251.4214 h 251.43 l -0.01,-251.4066 251.41,0.008 v -301.43 h -100 v 201.422 h -251.41" /><path
         id="path68"
         style="fill:#fff9fb;fill-opacity:1;fill-rule:nonzero;stroke:none"
         d="M 5430.93,348.039 4667.26,93.4805 4921.81,857.16 Z" /><path
         id="path70"
         style="fill:#fff9fb;fill-opacity:1;fill-rule:nonzero;stroke:none"
         d="M 5417.42,114.27 5022.71,508.969 4825.36,-83.0898 Z M 4979.01,694.09 5602.54,70.582 4667.26,-241.191 4979.01,694.09" /><path
         id="path72"
         style="fill:#fff9fb;fill-opacity:1;fill-rule:nonzero;stroke:none"
         d="m 1422.05,7984.93 576.38,576.38 70.72,-70.71 -576.39,-576.38 -70.71,70.71" /><path
         id="path74"
         style="fill:#fff9fb;fill-opacity:1;fill-rule:nonzero;stroke:none"
         d="m 1121.79,7591.44 576.38,576.38 70.71,-70.71 -576.38,-576.38 -70.71,70.71" /><path
         id="path76"
         style="fill:#fff9fb;fill-opacity:1;fill-rule:nonzero;stroke:none"
         d="m 1107.05,7897.57 570.44,570.44 70.71,-70.71 -570.44,-570.44 -70.71,70.71" /><path
         id="path78"
         style="fill:#fff9fb;fill-opacity:1;fill-rule:nonzero;stroke:none"
         d="m 725.098,7836.49 560.222,560.22 70.71,-70.71 -560.225,-560.22 -70.707,70.71" /><path
         id="path80"
         style="fill:#fff9fb;fill-opacity:1;fill-rule:nonzero;stroke:none"
         d="m 2819.38,7796.23 c -195.25,195.26 -195.25,511.84 0,707.11 195.27,195.26 511.85,195.26 707.11,0 195.27,-195.27 195.27,-511.85 0,-707.11 -195.26,-195.26 -511.84,-195.26 -707.11,0" /><path
         id="path82"
         style="fill:#fff9fb;fill-opacity:1;fill-rule:nonzero;stroke:none"
         d="m 3686.4,7905.29 c 175.45,175.45 175.45,460.94 0,636.39 -175.46,175.45 -460.95,175.45 -636.4,0 -175.45,-175.45 -175.45,-460.94 0,-636.39 175.45,-175.46 460.94,-175.46 636.4,0 z m -707.11,707.1 c 214.45,214.45 563.37,214.45 777.81,0 214.45,-214.44 214.45,-563.37 0,-777.82 -214.44,-214.44 -563.36,-214.44 -777.81,0 -214.45,214.45 -214.45,563.38 0,777.82" /><path
         id="path84"
         style="fill:#fff9fb;fill-opacity:1;fill-rule:nonzero;stroke:none"
         d="m 6620,8457.34 -0.01,-251.42 251.42,0.01 v -251.42 h 201.41 v -100 l -301.41,-0.01 v 251.42 h -251.43 l 0.01,251.42 h -251.42 v 301.42 l 100,-0.01 V 8457.34 H 6620" /><path
         id="path86"
         style="fill:#fff9fb;fill-opacity:1;fill-rule:nonzero;stroke:none"
         d="m 6721.41,7705.14 v 251.42 h -251.42 v 251.42 h -201.42 v 99.99 l 301.43,0.01 -0.01,-251.42 h 251.43 l -0.01,-251.42 251.41,0.01 v -301.42 h -100 v 201.41 h -251.41" /><path
         id="path88"
         style="fill:#fff9fb;fill-opacity:1;fill-rule:nonzero;stroke:none"
         d="m 5417.42,8114.27 -394.71,394.71 -197.35,-592.06 z m -438.41,579.83 623.53,-623.53 -935.28,-311.77 311.75,935.3" /><path
         id="path90"
         style="fill:#fff9fb;fill-opacity:1;fill-rule:nonzero;stroke:none"
         d="m 7087.14,2804.41 c -195.26,-195.26 -511.85,-195.26 -707.11,0 -195.26,195.27 -195.26,511.85 0,707.11 195.26,195.27 511.85,195.27 707.11,0 195.26,-195.26 195.26,-511.84 0,-707.11" /><path
         id="path92"
         style="fill:#fff9fb;fill-opacity:1;fill-rule:nonzero;stroke:none"
         d="m 6868.9,3289.25 c -175.45,175.45 -460.94,175.45 -636.4,0 -175.45,-175.46 -175.45,-460.95 0,-636.4 175.46,-175.46 460.95,-175.46 636.4,0 175.46,175.45 175.46,460.94 0,636.4 z m -707.11,-707.11 c -214.45,214.44 -214.45,563.38 0,777.82 214.45,214.44 563.38,214.44 777.82,0 214.44,-214.44 214.44,-563.38 0,-777.82 -214.44,-214.44 -563.37,-214.44 -777.82,0" /><path
         id="path94"
         style="fill:#fff9fb;fill-opacity:1;fill-rule:nonzero;stroke:none"
         d="m 2315.03,6904.52 -763.68,-254.56 254.56,763.68 z" /><path
         id="path96"
         style="fill:#fff9fb;fill-opacity:1;fill-rule:nonzero;stroke:none"
         d="m 2291.52,6640.75 -394.7,394.71 -197.35,-592.06 z m -438.4,579.83 623.53,-623.52 -935.3,-311.77 311.77,935.29" /><path
         id="path98"
         style="fill:#fff9fb;fill-opacity:1;fill-rule:nonzero;stroke:none"
         d="m 1901.08,1888.06 177.77,-177.79 177.78,177.79 177.78,-177.79 142.42,142.43 70.71,-70.71 -213.13,-213.14 -177.78,177.78 -177.78,-177.78 -177.77,177.78 -177.78,-177.78 -213.13,213.14 70.71,70.71 142.42,-142.43 177.78,177.79" /><path
         id="path100"
         style="fill:#fff9fb;fill-opacity:1;fill-rule:nonzero;stroke:none"
         d="m 1450.18,1878.06 177.77,-177.79 177.78,177.79 177.78,-177.79 142.42,142.43 70.72,-70.71 -213.14,-213.14 -177.78,177.78 -177.78,-177.78 -177.77,177.78 -177.78,-177.78 -213.13,213.14 70.71,70.71 142.42,-142.43 177.78,177.79" /><path
         id="path102"
         style="fill:#fff9fb;fill-opacity:1;fill-rule:nonzero;stroke:none"
         d="m 6307.52,1769.48 h -815.13 v 100 h 815.13 v -100" /><path
         id="path104"
         style="fill:#fff9fb;fill-opacity:1;fill-rule:nonzero;stroke:none"
         d="m 6101.47,1542.6 h -806.72 v 100 h 806.72 v -100" /><path
         id="path106"
         style="fill:#fff9fb;fill-opacity:1;fill-rule:nonzero;stroke:none"
         d="m 6414.75,1315.7 h -792.27 v 100 h 792.27 v -100" /><path
         id="path108"
         style="fill:#fff9fb;fill-opacity:1;fill-rule:nonzero;stroke:none"
         d="m 6474.58,1608.52 h -815.13 v 100 h 815.13 v -100" /><path
         id="path110"
         style="fill:#fff9fb;fill-opacity:1;fill-rule:nonzero;stroke:none"
         d="m 6268.53,1381.63 h -806.72 v 100 h 806.72 v -100" /><path
         id="path112"
         style="fill:#fff9fb;fill-opacity:1;fill-rule:nonzero;stroke:none"
         d="m 6581.81,1154.74 h -792.28 v 100 h 792.28 v -100" /><path
         id="path114"
         style="fill:#fff9fb;fill-opacity:1;fill-rule:nonzero;stroke:none"
         d="m 1166.03,5854.23 h 1000 v -1000 h -1000 v 1000" /><path
         id="path116"
         style="fill:#fff9fb;fill-opacity:1;fill-rule:nonzero;stroke:none"
         d="m 2330.2,5612.72 h -900 v -900 h 900 z m -1000,100 h 1100 v -1100 h -1100 v 1100" /><path
         id="path118"
         style="fill:#fff9fb;fill-opacity:1;fill-rule:nonzero;stroke:none"
         d="m 6616.85,6715.69 254.55,-763.67 -763.68,254.56 z" /><path
         id="path120"
         style="fill:#fff9fb;fill-opacity:1;fill-rule:nonzero;stroke:none"
         d="m 6672.98,6900.31 -394.71,-394.71 592.06,-197.35 z m -579.83,-438.41 623.52,623.53 311.77,-935.3 -935.29,311.77" /><path
         id="path122"
         style="fill:#fff9fb;fill-opacity:1;fill-rule:nonzero;stroke:none"
         d="m 8319.22,5885.29 h -815.13 v 100 h 815.13 v -100" /><path
         id="path124"
         style="fill:#fff9fb;fill-opacity:1;fill-rule:nonzero;stroke:none"
         d="m 8113.16,5658.4 h -806.71 v 100 h 806.71 v -100" /><path
         id="path126"
         style="fill:#fff9fb;fill-opacity:1;fill-rule:nonzero;stroke:none"
         d="m 8426.45,5431.51 h -792.28 v 100 h 792.28 v -100" /><path
         id="path128"
         style="fill:#fff9fb;fill-opacity:1;fill-rule:nonzero;stroke:none"
         d="m 8486.27,5724.32 h -815.13 v 100 h 815.13 v -100" /><path
         id="path130"
         style="fill:#fff9fb;fill-opacity:1;fill-rule:nonzero;stroke:none"
         d="M 8280.22,5497.43 H 7473.5 v 100 h 806.72 v -100" /><path
         id="path132"
         style="fill:#fff9fb;fill-opacity:1;fill-rule:nonzero;stroke:none"
         d="m 8593.5,5270.54 h -792.27 v 100 h 792.27 v -100" /><path
         id="path134"
         style="fill:#fff9fb;fill-opacity:1;fill-rule:nonzero;stroke:none"
         d="m 319.215,5885.29 h -815.129 v 100 h 815.129 v -100" /><path
         id="path136"
         style="fill:#fff9fb;fill-opacity:1;fill-rule:nonzero;stroke:none"
         d="m 113.164,5658.4 h -806.723 v 100 h 806.723 v -100" /><path
         id="path138"
         style="fill:#fff9fb;fill-opacity:1;fill-rule:nonzero;stroke:none"
         d="m 426.441,5431.51 h -792.269 v 100 h 792.269 v -100" /><path
         id="path140"
         style="fill:#fff9fb;fill-opacity:1;fill-rule:nonzero;stroke:none"
         d="m 486.27,5724.32 h -815.125 v 100 H 486.27 v -100" /><path
         id="path142"
         style="fill:#fff9fb;fill-opacity:1;fill-rule:nonzero;stroke:none"
         d="m 280.219,5497.43 h -806.723 v 100 h 806.723 v -100" /><path
         id="path144"
         style="fill:#fff9fb;fill-opacity:1;fill-rule:nonzero;stroke:none"
         d="m 593.496,5270.54 h -792.269 v 100 h 792.269 v -100" /><path
         id="path146"
         style="fill:#fff9fb;fill-opacity:1;fill-rule:nonzero;stroke:none"
         d="m 4984.55,5251.06 -0.01,-251.42 h 251.42 v -251.41 h 201.41 l 0.01,-100 -301.42,-0.01 v 251.42 h -251.42 v 251.41 h -251.41 v 301.43 l 100,-0.01 v -201.42 l 251.42,0.01" /><path
         id="path148"
         style="fill:#fff9fb;fill-opacity:1;fill-rule:nonzero;stroke:none"
         d="m 5045.96,4508.86 0.01,251.42 h -251.43 v 251.42 h -201.41 v 99.99 l 301.42,0.01 -0.01,-251.42 h 251.43 l -0.01,-251.41 h 251.42 l -0.01,-301.42 h -100 v 201.42 l -251.41,-0.01" /><path
         id="path150"
         style="fill:#fff9fb;fill-opacity:1;fill-rule:nonzero;stroke:none"
         d="m 3573.12,2407.15 h 1000 v -1000 h -1000 v 1000" /><path
         id="path152"
         style="fill:#fff9fb;fill-opacity:1;fill-rule:nonzero;stroke:none"
         d="m 4256.23,2221.82 h -900 v -900 h 900 z m -1000,100 h 1100 v -1100 h -1100 v 1100" /><path
         id="path154"
         style="fill:#fff9fb;fill-opacity:1;fill-rule:nonzero;stroke:none"
         d="m 4503.04,7257.11 h 1000 v -1000 h -1000 v 1000" /><path
         id="path156"
         style="fill:#fff9fb;fill-opacity:1;fill-rule:nonzero;stroke:none"
         d="m 5170.93,7005.07 h -900 v -900 h 900 z m -1000,100 h 1100 v -1100 h -1100 v 1100" /><path
         id="path158"
         style="fill:#fff9fb;fill-opacity:1;fill-rule:nonzero;stroke:none"
         d="m 3397.6,6287.92 -177.78,-177.77 177.78,-177.78 -177.78,-177.78 142.42,-142.42 -70.7,-70.71 -213.15,213.13 177.79,177.78 -177.79,177.78 177.79,177.77 -177.79,177.78 213.15,213.13 70.7,-70.71 -142.42,-142.42 177.78,-177.78" /><path
         id="path160"
         style="fill:#fff9fb;fill-opacity:1;fill-rule:nonzero;stroke:none"
         d="m 3475.38,6806.6 -177.78,-177.78 177.78,-177.78 -177.78,-177.77 142.42,-142.43 -70.7,-70.71 -213.15,213.14 177.79,177.77 -177.79,177.78 177.79,177.78 -177.79,177.77 213.15,213.14 70.7,-70.71 -142.42,-142.43 177.78,-177.77" /><path
         id="path162"
         style="fill:#fff9fb;fill-opacity:1;fill-rule:nonzero;stroke:none"
         d="m 1331.04,3523.29 v -815.13 h -100 v 815.13 h 100" /><path
         id="path164"
         style="fill:#fff9fb;fill-opacity:1;fill-rule:nonzero;stroke:none"
         d="m 1557.93,3317.25 v -806.73 h -100 v 806.73 h 100" /><path
         id="path166"
         style="fill:#fff9fb;fill-opacity:1;fill-rule:nonzero;stroke:none"
         d="m 1784.82,3630.52 v -792.27 h -100 v 792.27 h 100" /><path
         id="path168"
         style="fill:#fff9fb;fill-opacity:1;fill-rule:nonzero;stroke:none"
         d="m 1265.12,4013.86 v -815.13 h -100 v 815.13 h 100" /><path
         id="path170"
         style="fill:#fff9fb;fill-opacity:1;fill-rule:nonzero;stroke:none"
         d="m 1492.01,3807.8 v -806.72 h -100 v 806.72 h 100" /><path
         id="path172"
         style="fill:#fff9fb;fill-opacity:1;fill-rule:nonzero;stroke:none"
         d="m 1718.9,4121.08 v -792.27 h -100 v 792.27 h 100" /><path
         id="path174"
         style="fill:#fff9fb;fill-opacity:1;fill-rule:nonzero;stroke:none"
         d="m 4613.42,3224.45 763.67,254.56 -254.56,-763.68 z" /><path
         id="path176"
         style="fill:#fff9fb;fill-opacity:1;fill-rule:nonzero;stroke:none"
         d="m 4469.87,3280.59 394.72,-394.71 197.34,592.06 z m 438.41,-579.83 -623.52,623.53 935.29,311.76 -311.77,-935.29" /><path
         id="path178"
         style="fill:#fff9fb;fill-opacity:1;fill-rule:nonzero;stroke:none"
         d="m 3184.81,2979 h -251.42 l 0.01,-251.41 h -251.42 v -201.42 h -100 l -0.01,301.43 251.42,-0.01 v 251.42 l 251.42,-0.01 -0.01,251.42 h 301.43 l -0.01,-100 H 3184.81 V 2979" /><path
         id="path180"
         style="fill:#fff9fb;fill-opacity:1;fill-rule:nonzero;stroke:none"
         d="m 2446.84,2910.38 251.41,-0.01 v 251.42 h 251.42 v 201.41 l 99.99,0.01 0.01,-301.42 h -251.42 v -251.42 h -251.41 v -251.41 h -301.42 v 100 h 201.42 v 251.42" /><path
         id="path182"
         style="fill:#fff9fb;fill-opacity:1;fill-rule:nonzero;stroke:none"
         d="m 3820.21,4842.65 c 195.27,-195.27 195.27,-511.85 0,-707.11 -195.26,-195.27 -511.84,-195.27 -707.1,0 -195.26,195.26 -195.26,511.84 0,707.11 195.26,195.26 511.84,195.26 707.1,0" /><path
         id="path184"
         style="fill:#fff9fb;fill-opacity:1;fill-rule:nonzero;stroke:none"
         d="m 3357.98,4731.66 c -175.45,-175.46 -175.45,-460.94 0,-636.4 175.46,-175.46 460.95,-175.46 636.4,0 175.45,175.46 175.45,460.94 0,636.4 -175.45,175.45 -460.94,175.45 -636.4,0 z m 707.11,-707.11 c -214.45,-214.44 -563.37,-214.44 -777.82,0 -214.44,214.44 -214.44,563.37 0,777.82 214.45,214.44 563.37,214.44 777.82,0 214.44,-214.45 214.44,-563.38 0,-777.82" /><path
         id="path186"
         style="fill:#fff9fb;fill-opacity:1;fill-rule:nonzero;stroke:none"
         d="m 6148.84,5068.5 v -815.13 h -100 v 815.13 h 100" /><path
         id="path188"
         style="fill:#fff9fb;fill-opacity:1;fill-rule:nonzero;stroke:none"
         d="m 6375.72,4862.45 v -806.72 h -100 v 806.72 h 100" /><path
         id="path190"
         style="fill:#fff9fb;fill-opacity:1;fill-rule:nonzero;stroke:none"
         d="m 6602.62,5175.73 v -792.27 h -100 v 792.27 h 100" /><path
         id="path192"
         style="fill:#fff9fb;fill-opacity:1;fill-rule:nonzero;stroke:none"
         d="m 6309.8,5235.56 v -815.13 h -100 v 815.13 h 100" /><path
         id="path194"
         style="fill:#fff9fb;fill-opacity:1;fill-rule:nonzero;stroke:none"
         d="m 6536.69,5029.51 v -806.72 h -100 v 806.72 h 100" /><path
         id="path196"
         style="fill:#fff9fb;fill-opacity:1;fill-rule:nonzero;stroke:none"
         d="m 6763.58,5342.79 v -792.27 h -100 v 792.27 h 100" /></g></g></svg>
